<svg width="500" height="500" viewBox="0 0 500 500" fill="none" xmlns="http://www.w3.org/2000/svg">
<path d="M117 180V320C117 400 247 440 247 440C247 440 377 400 377 320V180L247 110L117 180Z" stroke="#61C9A8" stroke-width="20" stroke-linecap="round"/>
<path d="M157 180C160.271 179.276 163.528 178.521 166.772 177.736C195.965 170.671 224.061 161.138 251.061 149.138C251.061 149.138 251.061 149.138 251.061 149.138H242.939C269.939 161.138 298.035 170.671 327.228 177.736C330.472 178.521 333.729 179.276 337 180C334.271 178.057 331.528 176.145 328.772 174.264C303.965 157.329 278.061 142.862 251.061 130.862C251.061 130.862 251.061 130.862 251.061 130.862L247 129.057L242.939 130.862C215.939 142.862 190.035 157.329 165.228 174.264C162.472 176.145 159.729 178.057 157 180Z" fill="#61C9A8"/>
<path d="M247 140V260" stroke="#61C9A8" stroke-width="20" stroke-linecap="round"/>
<path d="M187 210C189 210.667 191 211.3 193 211.9C211 217.3 229 220 247 220C265 220 283 217.3 301 211.9C303 211.3 305 210.667 307 210C305 209.333 303 208.7 301 208.1C283 202.7 265 200 247 200C229 200 211 202.7 193 208.1C191 208.7 189 209.333 187 210Z" fill="#61C9A8"/>
<path d="M122 300C170.581 300 194.871 260 243.452 260C292.032 260 316.323 310 373 270" stroke="#61C9A8" stroke-width="20" stroke-linecap="round"/>
<path d="M187 340H307C297 370 277 380 247 380C217 380 197 370 187 340Z" fill="#61C9A8" stroke="#61C9A8" stroke-width="20" stroke-linecap="round"/>
<path d="M207 340C206.682 343.333 206.365 346.667 206.047 350C213.349 350 220.651 350 227.953 350C227.635 346.667 227.318 343.333 227 340C226.896 338.906 226.792 337.813 226.688 336.719C226.157 331.146 225.626 325.573 225.095 320L217 328.095C225.333 327.301 233.667 326.507 242 325.714L236.457 321.386C238.392 326.858 240.328 332.33 242.263 337.802C242.629 338.838 242.996 339.874 243.362 340.91C243.743 341.986 244.123 343.062 244.504 344.139C246.719 343.585 248.935 343.031 251.15 342.477C250.979 341.348 250.809 340.219 250.638 339.09C250.474 338.004 250.31 336.918 250.146 335.832C249.278 330.093 248.411 324.353 247.543 318.614L245.882 313.917L242 314.286C233.667 313.493 225.333 312.699 217 311.905L208.214 312.742L208.905 320C208.374 325.573 207.843 331.146 207.312 336.719C207.208 337.813 207.104 338.906 207 340Z" fill="#61C9A8"/>
<path d="M252 364C251.808 366.652 252.693 369.196 254.572 371.071C256.444 372.946 259.156 374 262 374C264.844 374 267.556 372.946 269.428 371.071C271.307 369.196 272.192 366.652 272 364C271.833 361.665 271.667 359.33 271.5 356.995C269.954 335.33 268.407 313.665 266.861 292L258.922 295.762C266.683 301.239 274.445 306.715 282.207 312.192L282.58 307.55C275.55 312.323 268.52 317.097 261.49 321.87L263.017 322.75C262.845 320.335 262.672 317.92 262.5 315.505C262.333 313.17 262.167 310.835 262 308.5C261.833 310.835 261.667 313.17 261.5 315.505C261.328 317.92 261.155 320.335 260.983 322.75L261.096 324.571L262.51 323.63C270.147 319.903 277.783 316.177 285.42 312.45L288.964 310.06L285.793 307.808C278.888 301.285 271.983 294.761 265.078 288.238L256.609 282.029L257.139 292C255.593 313.665 254.046 335.33 252.5 356.995C252.333 359.33 252.167 361.665 252 364Z" fill="#61C9A8"/>
</svg>
